<?xml version="1.0" standalone="no"?><svg xmlns:xlink="http://www.w3.org/1999/xlink" xmlns="http://www.w3.org/2000/svg" viewBox="0 0 2048 1489.4545454545455" preserveAspectRatio="xMaxYMax slice"><g transform="scale(2.8209366391184574)"><rect x="0" y="0" width="726" height="528" fill="#ffffff"/><circle cx="33" cy="33" r="6.6" fill="#8c9ff0"/><circle cx="99" cy="33" r="6.6" fill="#cad3f8"/><circle cx="165" cy="33" r="6.6" fill="#ffb3c5"/><circle cx="231" cy="33" r="6.6" fill="#ffe4eb"/><circle cx="297" cy="33" r="6.6" fill="#ff5d84"/><circle cx="363" cy="33" r="6.6" fill="#3d5ee6"/><circle cx="429" cy="33" r="6.6" fill="#7c93ee"/><circle cx="495" cy="33" r="6.6" fill="#ffd1dc"/><circle cx="561" cy="33" r="6.6" fill="#ff8ca8"/><circle cx="627" cy="33" r="6.6" fill="#fbfbfe"/><circle cx="693" cy="33" r="6.6" fill="#ffb9c9"/><circle cx="33" cy="99" r="6.6" fill="#4a69e8"/><circle cx="99" cy="99" r="6.6" fill="#ffb2c4"/><circle cx="165" cy="99" r="6.6" fill="#778eed"/><circle cx="231" cy="99" r="6.6" fill="#b4c0f5"/><circle cx="297" cy="99" r="6.6" fill="#dfe5fb"/><circle cx="363" cy="99" r="6.6" fill="#1f45e2"/><circle cx="429" cy="99" r="6.6" fill="#8a9df0"/><circle cx="495" cy="99" r="6.6" fill="#ffa4ba"/><circle cx="561" cy="99" r="6.6" fill="#ffe5eb"/><circle cx="627" cy="99" r="6.6" fill="#ffe3e9"/><circle cx="693" cy="99" r="6.6" fill="#f4f6fe"/><circle cx="33" cy="165" r="6.6" fill="#2046e2"/><circle cx="99" cy="165" r="6.6" fill="#ffcfda"/><circle cx="165" cy="165" r="6.6" fill="#c4cef7"/><circle cx="231" cy="165" r="6.6" fill="#ffd3de"/><circle cx="297" cy="165" r="6.6" fill="#ffb7c8"/><circle cx="363" cy="165" r="6.6" fill="#d0d8f9"/><circle cx="429" cy="165" r="6.6" fill="#ff7898"/><circle cx="495" cy="165" r="6.6" fill="#ffc3d1"/><circle cx="561" cy="165" r="6.6" fill="#ff84a1"/><circle cx="627" cy="165" r="6.6" fill="#ffa7bc"/><circle cx="693" cy="165" r="6.6" fill="#6c85ec"/><circle cx="33" cy="231" r="6.6" fill="#ff6186"/><circle cx="99" cy="231" r="6.6" fill="#ff6388"/><circle cx="165" cy="231" r="6.6" fill="#ff698d"/><circle cx="231" cy="231" r="6.6" fill="#ff7e9d"/><circle cx="297" cy="231" r="6.6" fill="#2d51e4"/><circle cx="363" cy="231" r="6.6" fill="#9bacf2"/><circle cx="429" cy="231" r="6.6" fill="#ffdbe4"/><circle cx="495" cy="231" r="6.6" fill="#617bea"/><circle cx="561" cy="231" r="6.6" fill="#ff84a1"/><circle cx="627" cy="231" r="6.6" fill="#ffb0c2"/><circle cx="693" cy="231" r="6.6" fill="#9daef2"/><circle cx="33" cy="297" r="6.6" fill="#fff3f6"/><circle cx="99" cy="297" r="6.6" fill="#ff91ab"/><circle cx="165" cy="297" r="6.6" fill="#294de3"/><circle cx="231" cy="297" r="6.6" fill="#ff3e6c"/><circle cx="297" cy="297" r="6.6" fill="#ffe4ea"/><circle cx="363" cy="297" r="6.6" fill="#fffafb"/><circle cx="429" cy="297" r="6.6" fill="#fff8f9"/><circle cx="495" cy="297" r="6.6" fill="#ff95ae"/><circle cx="561" cy="297" r="6.6" fill="#ffd3dd"/><circle cx="627" cy="297" r="6.6" fill="#ffe0e7"/><circle cx="693" cy="297" r="6.6" fill="#859aef"/><circle cx="33" cy="363" r="6.6" fill="#ff6489"/><circle cx="99" cy="363" r="6.6" fill="#ff819f"/><circle cx="165" cy="363" r="6.6" fill="#617bea"/><circle cx="231" cy="363" r="6.6" fill="#3759e5"/><circle cx="297" cy="363" r="6.6" fill="#7a91ee"/><circle cx="363" cy="363" r="6.6" fill="#6c85ec"/><circle cx="429" cy="363" r="6.6" fill="#ff7999"/><circle cx="495" cy="363" r="6.6" fill="#889cef"/><circle cx="561" cy="363" r="6.6" fill="#ff5e84"/><circle cx="627" cy="363" r="6.6" fill="#4867e7"/><circle cx="693" cy="363" r="6.6" fill="#ffccd8"/><circle cx="33" cy="429" r="6.6" fill="#274ce3"/><circle cx="99" cy="429" r="6.6" fill="#ffacbf"/><circle cx="165" cy="429" r="6.6" fill="#ccd5f8"/><circle cx="231" cy="429" r="6.6" fill="#ff6489"/><circle cx="297" cy="429" r="6.6" fill="#4c6ae8"/><circle cx="363" cy="429" r="6.6" fill="#dbe1fa"/><circle cx="429" cy="429" r="6.6" fill="#bfcaf7"/><circle cx="495" cy="429" r="6.6" fill="#e0e5fb"/><circle cx="561" cy="429" r="6.6" fill="#ffb3c5"/><circle cx="627" cy="429" r="6.6" fill="#cad3f8"/><circle cx="693" cy="429" r="6.6" fill="#4968e7"/><circle cx="33" cy="495" r="6.6" fill="#ff6186"/><circle cx="99" cy="495" r="6.6" fill="#627deb"/><circle cx="165" cy="495" r="6.6" fill="#1c42e1"/><circle cx="231" cy="495" r="6.6" fill="#e0e5fb"/><circle cx="297" cy="495" r="6.6" fill="#ffa8bd"/><circle cx="363" cy="495" r="6.6" fill="#4f6ce8"/><circle cx="429" cy="495" r="6.6" fill="#f0f2fd"/><circle cx="495" cy="495" r="6.6" fill="#ff4470"/><circle cx="561" cy="495" r="6.6" fill="#fff5f7"/><circle cx="627" cy="495" r="6.6" fill="#7c93ee"/><circle cx="693" cy="495" r="6.6" fill="#b0bdf5"/></g></svg>